<svg xmlns="http://www.w3.org/2000/svg" viewBox="0 0 1600 1000" width="1600" height="1000">
  <rect width="1600" height="1000" fill="#07110a"/>
  <g transform="translate(620,120)">
    <rect width="360" height="760" rx="48" fill="#0f2418" stroke="#1b3a28" stroke-width="3"/>
    <rect x="16" y="16" width="328" height="728" rx="36" fill="#050c07"/>
    <rect x="40" y="80" width="280" height="44" rx="10" fill="#0f2418"/>
    <rect x="40" y="140" width="280" height="70" rx="12" fill="#0f2418"/>
    <circle cx="64" cy="175" r="8" fill="#22c55e"/>
    <rect x="90" y="160" width="180" height="12" rx="4" fill="#e7f1ea" opacity="0.8"/>
    <rect x="90" y="182" width="120" height="10" rx="3" fill="#8aa396"/>
    <rect x="40" y="230" width="280" height="70" rx="12" fill="#0f2418"/>
    <circle cx="64" cy="265" r="8" fill="#22c55e"/>
    <rect x="90" y="250" width="170" height="12" rx="4" fill="#e7f1ea" opacity="0.8"/>
    <rect x="90" y="272" width="100" height="10" rx="3" fill="#8aa396"/>
    <rect x="40" y="320" width="280" height="70" rx="12" fill="#0f2418"/>
    <circle cx="64" cy="355" r="8" fill="#f87171"/>
    <rect x="90" y="340" width="150" height="12" rx="4" fill="#e7f1ea" opacity="0.8"/>
    <rect x="90" y="362" width="130" height="10" rx="3" fill="#8aa396"/>
    <rect x="80" y="620" width="200" height="54" rx="14" fill="#22c55e"/>
    <text x="180" y="654" text-anchor="middle" font-family="system-ui,sans-serif" font-size="18" font-weight="600" fill="#04160a">Start All</text>
  </g>
  <text x="800" y="930" font-family="system-ui,-apple-system,Segoe UI,sans-serif" font-size="28" fill="#4ade80" text-anchor="middle" font-weight="600">Mobile companion placeholder</text>
</svg>
